<svg xmlns="http://www.w3.org/2000/svg" xmlns:xlink="http://www.w3.org/1999/xlink" width="152" height="78" viewBox="0 0 152 78">
  <defs>
    <clipPath id="clip-ssh_logo_color">
      <rect width="152" height="78"/>
    </clipPath>
  </defs>
  <g id="ssh_logo_color" clip-path="url(#clip-ssh_logo_color)">
    <rect width="152" height="78" fill="rgba(255,255,255,0)"/>
    <g id="Group_2" data-name="Group 2" transform="translate(-227.658 -380.914)">
      <rect id="Rectangle_1" data-name="Rectangle 1" width="21" height="20.999" transform="translate(239.658 414.922)" fill="#a96c3d"/>
      <path id="Path_1" data-name="Path 1" d="M280.687,392.059H271.7a1.9,1.9,0,0,0-1.465.508,1.861,1.861,0,0,0-.469,1.311v2.157a2.5,2.5,0,0,0,.485,1.742,2.1,2.1,0,0,0,1.574.508h3.805a5.093,5.093,0,0,1,3.461,1.28,3.764,3.764,0,0,1,1.464,2.881V405.9a4.6,4.6,0,0,1-1.382,3.407,4.81,4.81,0,0,1-3.532,1.372h-9.023v-3.145h8.668a2.046,2.046,0,0,0,1.545-.6,1.782,1.782,0,0,0,.576-1.219v-2.743a1.679,1.679,0,0,0-.578-1.3,2.518,2.518,0,0,0-1.736-.524h-3.252a5.517,5.517,0,0,1-3.737-1.279,3.974,3.974,0,0,1-1.486-3.129V394a4.508,4.508,0,0,1,5.238-5.087h8.826Z" fill="#fff"/>
      <path id="Path_2" data-name="Path 2" d="M286.611,410.678H283.9V388.914h2.713Z" fill="#fff"/>
      <path id="Path_3" data-name="Path 3" d="M304.166,406.67a3.815,3.815,0,0,1-1.184,2.867,4.394,4.394,0,0,1-3.181,1.141H294.81a4.443,4.443,0,0,1-3.164-1.125,3.776,3.776,0,0,1-1.2-2.883v-8.509a3.608,3.608,0,0,1,1.074-2.82,4.785,4.785,0,0,1,3.289-.971H299.8a4.689,4.689,0,0,1,3.166,1.032,3.464,3.464,0,0,1,1.2,2.759Zm-2.744-.771v-6.843q0-1.973-1.9-1.973h-4.4a1.741,1.741,0,0,0-1.965,1.973v6.72q0,2.188,1.965,2.189h4.4Q301.424,407.965,301.422,405.9Z" fill="#fff"/>
      <path id="Path_4" data-name="Path 4" d="M321.6,406.516a4.008,4.008,0,0,1-1.215,2.96,3.817,3.817,0,0,1-2.744,1.2H312.18a4,4,0,0,1-2.914-1.311,4.219,4.219,0,0,1-1.295-3.067v-1.972a5.649,5.649,0,0,1,1.107-3.746,3.8,3.8,0,0,1,3.072-1.311h6.7v-1.079a1.077,1.077,0,0,0-.265-.754,1.186,1.186,0,0,0-.764-.355h-9.853V394.37h9.7a4.13,4.13,0,0,1,2.871.956A3.55,3.55,0,0,1,321.6,398.1Zm-2.745-.155v-2.619q0-1.758-2.181-1.758H312.9q-2.217,0-2.214,1.758v2.619a1.416,1.416,0,0,0,.513,1.234,3.059,3.059,0,0,0,1.733.37h3.709a2.976,2.976,0,0,0,1.716-.37A1.435,1.435,0,0,0,318.853,406.361Z" fill="#fff"/>
      <path id="Path_5" data-name="Path 5" d="M339.1,410.678h-2.746V398.9a1.845,1.845,0,0,0-.421-1.309,1.891,1.891,0,0,0-1.42-.447h-4.3a2.266,2.266,0,0,0-1.5.37,1.85,1.85,0,0,0-.4,1.386v11.777h-2.713V398.563q0-4.192,4.615-4.193h4.271q4.617,0,4.619,4.193Z" fill="#fff"/>
      <path id="Path_6" data-name="Path 6" d="M356.511,410.678h-9.139a4.476,4.476,0,0,1-3.242-1.172,4.12,4.12,0,0,1-1.217-3.113v-7.306q0-4.718,5.053-4.717h4.054a4.381,4.381,0,0,1,3.165,1.1,4.06,4.06,0,0,1,1.138,3.066v1.944l-10.7,4.931v.555a2.194,2.194,0,0,0,.437,1.572,2.039,2.039,0,0,0,1.465.432h8.983ZM353.6,398.734a1.734,1.734,0,0,0-.312-1.1,1.644,1.644,0,0,0-1.371-.551H347.5q-1.869,0-1.871,2.065v3.265Z" fill="#fff"/>
      <g id="Group_1" data-name="Group 1">
        <path id="Path_7" data-name="Path 7" d="M313.428,451.646h-2v-4.44h-6.014v4.44h-2V441.2h2v4.5h6.014v-4.5h2Z" fill="#a96c3d"/>
        <path id="Path_8" data-name="Path 8" d="M325.793,448.716a2.54,2.54,0,0,1-.99,2.234,5.742,5.742,0,0,1-3.225.7h-1.5a5.751,5.751,0,0,1-3.2-.7,2.518,2.518,0,0,1-1.01-2.234v-4.588a2.536,2.536,0,0,1,.991-2.234,5.73,5.73,0,0,1,3.224-.7h1.5a5.75,5.75,0,0,1,3.2.7,2.516,2.516,0,0,1,1.01,2.234Zm-2,.1v-4.765a1.187,1.187,0,0,0-.428-1.058,2.67,2.67,0,0,0-1.437-.289h-2.164a2.721,2.721,0,0,0-1.469.3,1.179,1.179,0,0,0-.438,1.051v4.735a1.188,1.188,0,0,0,.428,1.059,2.774,2.774,0,0,0,1.479.288h2.164a2.944,2.944,0,0,0,1.527-.251A1.291,1.291,0,0,0,323.8,448.819Z" fill="#a96c3d"/>
        <path id="Path_9" data-name="Path 9" d="M335.07,442.707h-2.986v8.939h-2v-8.939h-2.967V441.2h7.951Z" fill="#a96c3d"/>
        <path id="Path_10" data-name="Path 10" d="M345.5,442.707h-5.836a1.342,1.342,0,0,0-.83.267,1.064,1.064,0,0,0-.416.887v1.761h7.062v1.51h-7.062v2.053a.8.8,0,0,0,.613.757,4.89,4.89,0,0,0,1.6.194h4.806v1.51h-5.361a4.425,4.425,0,0,1-2.721-.718,2.455,2.455,0,0,1-.939-2.079v-5.032a2.205,2.205,0,0,1,.969-1.983,5.731,5.731,0,0,1,3.066-.637H345.5Z" fill="#a96c3d"/>
        <path id="Path_11" data-name="Path 11" d="M356.477,451.646h-5.2a4.56,4.56,0,0,1-2.689-.681,2.243,2.243,0,0,1-.949-1.939V441.2h2v7.815a.986.986,0,0,0,.365.865,2.211,2.211,0,0,0,1.236.259h5.242Z" fill="#a96c3d"/>
      </g>
      <path id="Path_12" data-name="Path 12" d="M280.68,417.955h-8.846a1.9,1.9,0,0,0-1.443.49,1.775,1.775,0,0,0-.461,1.265v2.081a2.377,2.377,0,0,0,.476,1.681,2.089,2.089,0,0,0,1.551.491H275.7a5.082,5.082,0,0,1,3.408,1.233,3.618,3.618,0,0,1,1.444,2.782v3.331a4.4,4.4,0,0,1-1.364,3.287,4.79,4.79,0,0,1-3.478,1.323h-8.887v-3.034h8.537a2.041,2.041,0,0,0,1.522-.579,1.7,1.7,0,0,0,.568-1.176v-2.647a1.606,1.606,0,0,0-.57-1.249,2.512,2.512,0,0,0-1.709-.506h-3.2a5.516,5.516,0,0,1-3.682-1.234,3.807,3.807,0,0,1-1.463-3.018v-2.648a5.048,5.048,0,0,1,1.213-3.658,5.32,5.32,0,0,1,3.947-1.249h8.692Z" fill="#fff"/>
      <path id="Path_13" data-name="Path 13" d="M297.324,451.645h-2.7V435.919h-6.664a4.032,4.032,0,0,1-2.916-1.16,4.261,4.261,0,0,1-1.2-3.213v-7.554a3.709,3.709,0,0,1,1.058-2.751,4.328,4.328,0,0,1,3.178-1.056h5.037a4.185,4.185,0,0,1,3.223,1.19,3.97,3.97,0,0,1,.984,2.8Zm-2.7-20.187v-7.05q0-1.6-1.9-1.606h-4.789a1.668,1.668,0,0,0-1.076.283,1.523,1.523,0,0,0-.338,1.176v7.494a1.529,1.529,0,0,0,.429,1.1,1.471,1.471,0,0,0,1.108.446h5.1Q294.624,433.3,294.621,431.458Z" fill="#fff"/>
      <path id="Path_14" data-name="Path 14" d="M314.367,431.874q0,4.046-4.545,4.045h-4.207q-4.546,0-4.545-4.045V420.185h2.672v11.421a1.553,1.553,0,0,0,.445,1.309,2.436,2.436,0,0,0,1.428.327h4.238a2.074,2.074,0,0,0,1.428-.371,1.816,1.816,0,0,0,.383-1.325V420.185h2.7Z" fill="#fff"/>
      <path id="Path_15" data-name="Path 15" d="M331.535,431.9a4.027,4.027,0,0,1-3.9,4.016H322.26a3.975,3.975,0,0,1-2.871-1.265,4.032,4.032,0,0,1-1.274-2.959v-1.9a5.37,5.37,0,0,1,1.09-3.614,3.783,3.783,0,0,1,3.025-1.264h6.6v-1.041a1.02,1.02,0,0,0-.262-.728,1.179,1.179,0,0,0-.752-.343h-9.7v-2.617h9.551a4.11,4.11,0,0,1,2.824.922,3.379,3.379,0,0,1,1.045,2.676Zm-2.7-.148v-2.527q0-1.7-2.15-1.7h-3.715q-2.18,0-2.18,1.7v2.527a1.35,1.35,0,0,0,.506,1.189,3.053,3.053,0,0,0,1.7.357h3.654a2.973,2.973,0,0,0,1.69-.357A1.373,1.373,0,0,0,328.832,431.755Z" fill="#fff"/>
      <path id="Path_16" data-name="Path 16" d="M340.778,422.832h-1.32q-1.5,0-1.5,1.576v11.511h-2.673v-11.57a4.189,4.189,0,0,1,1.06-3.138,4,4,0,0,1,2.9-1.026h1.535Z" fill="#fff"/>
      <path id="Path_17" data-name="Path 17" d="M356.5,435.919h-9a4.457,4.457,0,0,1-3.193-1.131,3.943,3.943,0,0,1-1.2-3v-7.048q0-4.551,4.977-4.551h3.992a4.373,4.373,0,0,1,3.117,1.056,3.867,3.867,0,0,1,1.121,2.959v1.874l-10.533,4.759v.535a2.088,2.088,0,0,0,.43,1.517,2.031,2.031,0,0,0,1.443.416H356.5ZM353.64,424.4a1.659,1.659,0,0,0-.307-1.063,1.636,1.636,0,0,0-1.352-.531h-4.357q-1.84,0-1.84,1.992l0,3.151Z" fill="#fff"/>
    </g>
  </g>
</svg>
